<svg width="33" height="24" viewBox="0 0 33 24" fill="none" xmlns="http://www.w3.org/2000/svg">
    <path fill-rule="evenodd" clip-rule="evenodd" d="M19.6235 15.9999C20.4318 15.9999 21.0871 15.3447 21.0871 14.5363C21.0871 13.728 20.4318 13.0728 19.6235 13.0728C19.1471 13.0728 18.7238 13.3004 18.4565 13.6529H12.0852H8.39233V15.5002L18.5221 15.5002C18.7904 15.8065 19.1844 15.9999 19.6235 15.9999Z" fill="url(#paint0_linear_639_84348)"/>
    <path fill-rule="evenodd" clip-rule="evenodd" d="M12.9051 6.47996C12.0477 5.60907 10.8768 5.11865 9.65465 5.11865H0V6.9659H9.65465C10.3818 6.9659 11.0786 7.2577 11.5887 7.7759L14.1389 10.3663C14.9963 11.2372 16.1673 11.7276 17.3894 11.7276H30.3828C30.6513 12.0463 31.0533 12.2488 31.5027 12.2488C32.311 12.2488 32.9663 11.5935 32.9663 10.7852C32.9663 9.97688 32.311 9.32161 31.5027 9.32161C31.0359 9.32161 30.6202 9.5401 30.3522 9.88037H17.3894C16.6622 9.88037 15.9654 9.58857 15.4553 9.07037L12.9051 6.47996Z" fill="url(#paint1_linear_639_84348)"/>
    <path fill-rule="evenodd" clip-rule="evenodd" d="M18.714 2.92718C19.5224 2.92718 20.1776 2.27191 20.1776 1.46359C20.1776 0.655271 19.5224 0 18.714 0C18.2559 0 17.847 0.21046 17.5786 0.539964H11.2567C10.0469 0.539964 8.88662 1.02062 8.0312 1.87617L4.78931 5.11854H7.40152L9.3375 3.18227C9.84649 2.67321 10.5369 2.38721 11.2567 2.38721H17.5786C17.847 2.71672 18.2559 2.92718 18.714 2.92718Z" fill="url(#paint2_linear_639_84348)"/>
    <path fill-rule="evenodd" clip-rule="evenodd" d="M16.6952 3.15022L15.9033 2.38721H13.241L15.4135 4.48047C16.2636 5.29946 17.398 5.75704 18.5783 5.75704H20.5565C20.8242 6.05246 21.211 6.23801 21.6412 6.23801C22.4495 6.23801 23.1048 5.58274 23.1048 4.77442C23.1048 3.96611 22.4495 3.31084 21.6412 3.31084C21.1563 3.31084 20.7265 3.54662 20.4602 3.90979H18.5783C17.876 3.90979 17.201 3.63753 16.6952 3.15022Z" fill="url(#paint3_linear_639_84348)"/>
    <path fill-rule="evenodd" clip-rule="evenodd" d="M27.0977 8.04265C27.906 8.04265 28.5613 7.38738 28.5613 6.57907C28.5613 5.77075 27.906 5.11548 27.0977 5.11548C26.6684 5.11548 26.2823 5.30031 26.0145 5.59474H25.7175C24.7701 5.59474 23.8611 5.96905 23.1883 6.63618L19.917 9.88029H22.5404L24.4891 7.94783C24.8158 7.6238 25.2574 7.44199 25.7175 7.44199H25.9154C26.1817 7.80613 26.6121 8.04265 27.0977 8.04265Z" fill="url(#paint4_linear_639_84348)"/>
    <path fill-rule="evenodd" clip-rule="evenodd" d="M4.561 10.8938C3.70232 10.0116 2.52348 9.51392 1.29236 9.51392H0V11.3612H1.29236C2.0249 11.3612 2.72633 11.6573 3.23725 12.1822L5.12361 14.1203C5.98229 15.0025 7.16113 15.5002 8.39225 15.5002C10.3639 15.5002 12.2499 16.3063 13.6124 17.7314L14.9295 19.1091C15.7901 20.0092 16.9812 20.5183 18.2265 20.5183H26.7748C27.0429 20.8561 27.4571 21.0728 27.9219 21.0728C28.7302 21.0728 29.3854 20.4175 29.3854 19.6092C29.3854 18.8009 28.7302 18.1456 27.9219 18.1456C27.4705 18.1456 27.0669 18.3499 26.7984 18.6711H18.2265C17.4855 18.6711 16.7768 18.3681 16.2647 17.8326L14.6964 16.2642C13.0244 14.5922 10.7568 13.6529 8.39225 13.6529C7.65972 13.6529 6.95829 13.3568 6.44736 12.8319L4.561 10.8938Z" fill="url(#paint5_linear_639_84348)"/>
    <path fill-rule="evenodd" clip-rule="evenodd" d="M30.0248 17.1225C30.8331 17.1225 31.4884 16.4672 31.4884 15.6589C31.4884 14.8506 30.8331 14.1953 30.0248 14.1953C29.5761 14.1953 29.1745 14.3972 28.9061 14.7152H28.8105C27.5116 14.7152 26.2743 15.2689 25.4089 16.2376L23.2349 18.6711H25.7119L26.7865 17.4683C27.3014 16.8919 28.0376 16.5624 28.8105 16.5624H28.8733C29.1412 16.9034 29.5574 17.1225 30.0248 17.1225Z" fill="url(#paint6_linear_639_84348)"/>
    <path fill-rule="evenodd" clip-rule="evenodd" d="M24.1217 21.4879L23.3063 20.5183H20.8926L22.7079 22.6768C23.1823 23.2409 23.8817 23.5665 24.6187 23.5665H25.1486C25.4138 23.8342 25.7816 23.9999 26.1882 23.9999C26.9965 23.9999 27.6518 23.3447 27.6518 22.5364C27.6518 21.728 26.9965 21.0728 26.1882 21.0728C25.6824 21.0728 25.2366 21.3293 24.9737 21.7193H24.6187C24.427 21.7193 24.2451 21.6346 24.1217 21.4879Z" fill="url(#paint7_linear_639_84348)"/>
    <defs>
        <linearGradient id="paint0_linear_639_84348" x1="20.8409" y1="13.8894" x2="12.0508" y2="15.6874" gradientUnits="userSpaceOnUse">
            <stop offset="0.530553" stop-color="#8300BF"/>
            <stop offset="1" stop-color="#24245B" stop-opacity="0.4"/>
        </linearGradient>
        <linearGradient id="paint1_linear_639_84348" x1="32.2416" y1="11.2967" x2="0.665979" y2="11.3296" gradientUnits="userSpaceOnUse">
            <stop offset="0.69683" stop-color="#8300BF"/>
            <stop offset="1" stop-color="#24245B" stop-opacity="0"/>
        </linearGradient>
        <linearGradient id="paint2_linear_639_84348" x1="19.8792" y1="1.42806" x2="5.13021" y2="4.49332" gradientUnits="userSpaceOnUse">
            <stop offset="0.69683" stop-color="#8300BF"/>
            <stop offset="1" stop-color="#24245B" stop-opacity="0.4"/>
        </linearGradient>
        <linearGradient id="paint3_linear_639_84348" x1="22.1101" y1="6.23801" x2="14.8954" y2="1.71287" gradientUnits="userSpaceOnUse">
            <stop offset="0.624582" stop-color="#8300BF"/>
            <stop offset="1" stop-color="#24245B" stop-opacity="0.4"/>
        </linearGradient>
        <linearGradient id="paint4_linear_639_84348" x1="28.27" y1="5.78333" x2="19.7211" y2="7.50205" gradientUnits="userSpaceOnUse">
            <stop offset="0.527344" stop-color="#8300BF"/>
            <stop offset="1" stop-color="#24245B" stop-opacity="0.4"/>
        </linearGradient>
        <linearGradient id="paint5_linear_639_84348" x1="28.1705" y1="21.0728" x2="1.97714" y2="8.12369" gradientUnits="userSpaceOnUse">
            <stop offset="0.69683" stop-color="#8300BF"/>
            <stop offset="1" stop-color="#24245B" stop-opacity="0"/>
        </linearGradient>
        <linearGradient id="paint6_linear_639_84348" x1="30.7637" y1="14.5221" x2="22.9652" y2="16.5573" gradientUnits="userSpaceOnUse">
            <stop offset="0.37659" stop-color="#8300BF"/>
            <stop offset="1" stop-color="#24245B" stop-opacity="0.4"/>
        </linearGradient>
        <linearGradient id="paint7_linear_639_84348" x1="27.2681" y1="23.5594" x2="22.6519" y2="19.5117" gradientUnits="userSpaceOnUse">
            <stop offset="0.417312" stop-color="#8300BF"/>
            <stop offset="1" stop-color="#24245B" stop-opacity="0.4"/>
        </linearGradient>
    </defs>
</svg>
