<svg width="45" height="24" viewBox="0 0 45 24" fill="none" xmlns="http://www.w3.org/2000/svg">
<rect x="0.5" y="0.5" width="44" height="23" rx="5.5" fill="#3B0057"/>
<rect x="0.5" y="0.5" width="44" height="23" rx="5.5" stroke="#8300BF"/>
<path d="M10.0641 17C9.75612 17 9.60212 16.846 9.60212 16.538V7.662C9.60212 7.354 9.75612 7.2 10.0641 7.2H12.6401C13.3681 7.2 13.9655 7.30733 14.4321 7.522C14.8988 7.72733 15.2488 8.01667 15.4821 8.39C15.7155 8.754 15.8321 9.18333 15.8321 9.678C15.8321 9.99533 15.7575 10.3033 15.6081 10.602C15.4681 10.9007 15.2815 11.162 15.0481 11.386C14.8148 11.6007 14.5628 11.7453 14.2921 11.82V11.876C14.6935 11.9693 15.0388 12.128 15.3281 12.352C15.6175 12.5667 15.8415 12.8327 16.0001 13.15C16.1588 13.458 16.2381 13.7987 16.2381 14.172C16.2381 14.8067 16.0981 15.334 15.8181 15.754C15.5475 16.174 15.1415 16.4867 14.6001 16.692C14.0681 16.8973 13.4101 17 12.6261 17H10.0641ZM11.1281 15.712H12.9621C13.5035 15.712 13.9281 15.5767 14.2361 15.306C14.5441 15.026 14.6981 14.6433 14.6981 14.158C14.6981 13.6727 14.5301 13.2993 14.1941 13.038C13.8675 12.7767 13.3821 12.646 12.7381 12.646H11.1281V15.712ZM11.1281 11.358H12.5561C13.0788 11.358 13.4941 11.2133 13.8021 10.924C14.1195 10.6347 14.2781 10.2847 14.2781 9.874C14.2781 9.398 14.1381 9.048 13.8581 8.824C13.5781 8.6 13.1301 8.488 12.5141 8.488H11.1281V11.358ZM20.8129 17.098C19.6836 17.098 18.8296 16.7993 18.2509 16.202C17.6723 15.6047 17.3829 14.662 17.3829 13.374C17.3829 12.534 17.5136 11.834 17.7749 11.274C18.0456 10.714 18.4283 10.294 18.9229 10.014C19.4176 9.72467 20.0103 9.58 20.7009 9.58C21.3636 9.58 21.9096 9.72933 22.3389 10.028C22.7683 10.3173 23.0856 10.7327 23.2909 11.274C23.4963 11.8153 23.5989 12.4547 23.5989 13.192C23.5989 13.2853 23.5709 13.388 23.5149 13.5C23.4589 13.6027 23.3843 13.6913 23.2909 13.766C23.2069 13.8407 23.1183 13.878 23.0249 13.878H18.8809C18.8996 14.5873 19.0723 15.1053 19.3989 15.432C19.7349 15.7493 20.2203 15.908 20.8549 15.908C21.2656 15.908 21.6156 15.8567 21.9049 15.754C22.2036 15.6513 22.4416 15.5533 22.6189 15.46C22.8056 15.3667 22.9269 15.32 22.9829 15.32C23.0576 15.32 23.1276 15.3667 23.1929 15.46C23.2583 15.5533 23.3096 15.6653 23.3469 15.796C23.3936 15.9173 23.4169 16.0153 23.4169 16.09C23.4169 16.1927 23.3423 16.3 23.1929 16.412C23.0436 16.524 22.8429 16.636 22.5909 16.748C22.3483 16.8507 22.0729 16.9347 21.7649 17C21.4569 17.0653 21.1396 17.098 20.8129 17.098ZM18.8669 12.758H22.1709C22.1709 12.0953 22.0356 11.6007 21.7649 11.274C21.4943 10.938 21.1023 10.77 20.5889 10.77C20.2436 10.77 19.9449 10.8447 19.6929 10.994C19.4409 11.1433 19.2403 11.3627 19.0909 11.652C18.9509 11.9413 18.8763 12.31 18.8669 12.758ZM27.3938 17.098C27.0018 17.098 26.6705 17.0233 26.3998 16.874C26.1385 16.7247 25.9425 16.51 25.8118 16.23C25.6812 15.9407 25.6158 15.586 25.6158 15.166V10.868H24.9858C24.7712 10.868 24.6638 10.7 24.6638 10.364V10.182C24.6638 9.846 24.7712 9.678 24.9858 9.678H25.6158L25.7978 8.25C25.8165 8.12867 25.8678 8.04 25.9518 7.984C26.0358 7.928 26.1572 7.9 26.3158 7.9H26.5258C26.7218 7.9 26.8618 7.928 26.9458 7.984C27.0298 8.04 27.0718 8.12867 27.0718 8.25V9.678H28.1638C28.3785 9.678 28.4858 9.846 28.4858 10.182V10.364C28.4858 10.7 28.3785 10.868 28.1638 10.868H27.0718V15.138C27.0718 15.4087 27.1138 15.6 27.1978 15.712C27.2912 15.824 27.4498 15.88 27.6738 15.88C27.8792 15.88 28.0238 15.8567 28.1078 15.81C28.2012 15.7633 28.2805 15.74 28.3458 15.74C28.4018 15.74 28.4438 15.7773 28.4718 15.852C28.5092 15.9173 28.5372 16.0013 28.5558 16.104C28.5838 16.1973 28.5978 16.2907 28.5978 16.384C28.6072 16.468 28.6118 16.5287 28.6118 16.566C28.6118 16.6687 28.5418 16.762 28.4018 16.846C28.2712 16.9207 28.1125 16.9813 27.9258 17.028C27.7392 17.0747 27.5618 17.098 27.3938 17.098ZM31.955 17.098C31.255 17.098 30.695 16.9207 30.275 16.566C29.8643 16.202 29.659 15.684 29.659 15.012C29.659 14.5827 29.729 14.2093 29.869 13.892C30.009 13.5747 30.2423 13.3087 30.569 13.094C30.905 12.8793 31.3623 12.7207 31.941 12.618C32.5196 12.506 33.243 12.45 34.111 12.45V11.848C34.111 11.6427 34.0643 11.4607 33.971 11.302C33.887 11.1433 33.7423 11.0173 33.537 10.924C33.3316 10.8213 33.0563 10.77 32.711 10.77C32.319 10.77 31.969 10.8167 31.661 10.91C31.353 10.994 31.101 11.0827 30.905 11.176C30.709 11.26 30.5783 11.302 30.513 11.302C30.457 11.302 30.4056 11.274 30.359 11.218C30.3123 11.1527 30.2656 11.0733 30.219 10.98C30.1816 10.8867 30.149 10.7933 30.121 10.7C30.093 10.6067 30.079 10.5273 30.079 10.462C30.079 10.3687 30.1583 10.2753 30.317 10.182C30.4756 10.0793 30.6856 9.986 30.947 9.902C31.2176 9.80867 31.5116 9.734 31.829 9.678C32.1556 9.61267 32.4776 9.58 32.795 9.58C33.2523 9.58 33.6536 9.636 33.999 9.748C34.3443 9.85067 34.629 10 34.853 10.196C35.0863 10.392 35.259 10.63 35.371 10.91C35.4923 11.1807 35.553 11.484 35.553 11.82V14.802C35.553 15.2127 35.567 15.544 35.595 15.796C35.623 16.0387 35.6463 16.2253 35.665 16.356C35.693 16.4867 35.707 16.5893 35.707 16.664C35.707 16.72 35.6696 16.7713 35.595 16.818C35.5203 16.8553 35.427 16.888 35.315 16.916C35.203 16.944 35.0863 16.9673 34.965 16.986C34.853 16.9953 34.755 17 34.671 17C34.5683 17 34.489 16.9627 34.433 16.888C34.3863 16.8133 34.3443 16.706 34.307 16.566C34.279 16.4167 34.2416 16.2393 34.195 16.034C34.0643 16.1927 33.8963 16.356 33.691 16.524C33.4856 16.6827 33.2383 16.818 32.949 16.93C32.6596 17.042 32.3283 17.098 31.955 17.098ZM32.193 15.894C32.4823 15.894 32.7436 15.852 32.977 15.768C33.2103 15.6747 33.4203 15.558 33.607 15.418C33.7936 15.278 33.9616 15.124 34.111 14.956V13.556C33.523 13.556 33.0376 13.5793 32.655 13.626C32.2723 13.6727 31.969 13.752 31.745 13.864C31.5303 13.9667 31.3763 14.1067 31.283 14.284C31.1896 14.452 31.143 14.6573 31.143 14.9C31.143 15.2173 31.2316 15.4647 31.409 15.642C31.5863 15.81 31.8476 15.894 32.193 15.894Z" fill="#E8C3F8"/>
</svg>
