<svg width="161" height="48" viewBox="0 0 161 48" fill="none" xmlns="http://www.w3.org/2000/svg">
<path fill-rule="evenodd" clip-rule="evenodd" d="M19.6235 27.9999C20.4318 27.9999 21.0871 27.3447 21.0871 26.5363C21.0871 25.728 20.4318 25.0728 19.6235 25.0728C19.1471 25.0728 18.7238 25.3004 18.4565 25.6529H12.0852H8.39233V27.5002L18.5221 27.5002C18.7904 27.8065 19.1844 27.9999 19.6235 27.9999Z" fill="url(#paint0_linear_2390_165622)"/>
<path fill-rule="evenodd" clip-rule="evenodd" d="M12.9051 18.48C12.0477 17.6091 10.8768 17.1187 9.65465 17.1187H0V18.9659H9.65465C10.3818 18.9659 11.0786 19.2577 11.5887 19.7759L14.1389 22.3663C14.9963 23.2372 16.1673 23.7276 17.3894 23.7276H30.3828C30.6513 24.0463 31.0533 24.2488 31.5027 24.2488C32.311 24.2488 32.9663 23.5935 32.9663 22.7852C32.9663 21.9769 32.311 21.3216 31.5027 21.3216C31.0359 21.3216 30.6202 21.5401 30.3522 21.8804H17.3894C16.6622 21.8804 15.9654 21.5886 15.4553 21.0704L12.9051 18.48Z" fill="url(#paint1_linear_2390_165622)"/>
<path fill-rule="evenodd" clip-rule="evenodd" d="M18.714 14.9272C19.5224 14.9272 20.1776 14.2719 20.1776 13.4636C20.1776 12.6553 19.5224 12 18.714 12C18.2559 12 17.847 12.2105 17.5786 12.54H11.2567C10.0469 12.54 8.88662 13.0206 8.0312 13.8762L4.78931 17.1185H7.40152L9.3375 15.1823C9.84649 14.6732 10.5369 14.3872 11.2567 14.3872H17.5786C17.847 14.7167 18.2559 14.9272 18.714 14.9272Z" fill="url(#paint2_linear_2390_165622)"/>
<path fill-rule="evenodd" clip-rule="evenodd" d="M16.6952 15.1502L15.9033 14.3872H13.241L15.4135 16.4805C16.2636 17.2995 17.398 17.757 18.5783 17.757H20.5565C20.8242 18.0525 21.211 18.238 21.6412 18.238C22.4495 18.238 23.1048 17.5827 23.1048 16.7744C23.1048 15.9661 22.4495 15.3108 21.6412 15.3108C21.1563 15.3108 20.7265 15.5466 20.4602 15.9098H18.5783C17.876 15.9098 17.201 15.6375 16.6952 15.1502Z" fill="url(#paint3_linear_2390_165622)"/>
<path fill-rule="evenodd" clip-rule="evenodd" d="M27.0977 20.0427C27.906 20.0427 28.5613 19.3874 28.5613 18.5791C28.5613 17.7707 27.906 17.1155 27.0977 17.1155C26.6684 17.1155 26.2823 17.3003 26.0145 17.5947H25.7175C24.7701 17.5947 23.8611 17.9691 23.1883 18.6362L19.917 21.8803H22.5404L24.4891 19.9478C24.8158 19.6238 25.2574 19.442 25.7175 19.442H25.9154C26.1817 19.8061 26.6121 20.0427 27.0977 20.0427Z" fill="url(#paint4_linear_2390_165622)"/>
<path fill-rule="evenodd" clip-rule="evenodd" d="M4.561 22.8938C3.70232 22.0116 2.52348 21.5139 1.29236 21.5139H0V23.3612H1.29236C2.0249 23.3612 2.72633 23.6573 3.23725 24.1822L5.12361 26.1203C5.98229 27.0025 7.16113 27.5002 8.39225 27.5002C10.3639 27.5002 12.2499 28.3063 13.6124 29.7314L14.9295 31.1091C15.7901 32.0092 16.9812 32.5183 18.2265 32.5183H26.7748C27.0429 32.8561 27.4571 33.0728 27.9219 33.0728C28.7302 33.0728 29.3854 32.4175 29.3854 31.6092C29.3854 30.8009 28.7302 30.1456 27.9219 30.1456C27.4705 30.1456 27.0669 30.3499 26.7984 30.6711H18.2265C17.4855 30.6711 16.7768 30.3681 16.2647 29.8326L14.6964 28.2642C13.0244 26.5922 10.7568 25.6529 8.39225 25.6529C7.65972 25.6529 6.95829 25.3568 6.44736 24.8319L4.561 22.8938Z" fill="url(#paint5_linear_2390_165622)"/>
<path fill-rule="evenodd" clip-rule="evenodd" d="M30.0248 29.1225C30.8331 29.1225 31.4884 28.4672 31.4884 27.6589C31.4884 26.8506 30.8331 26.1953 30.0248 26.1953C29.5761 26.1953 29.1745 26.3972 28.9061 26.7152H28.8105C27.5116 26.7152 26.2743 27.2689 25.4089 28.2376L23.2349 30.6711H25.7119L26.7865 29.4683C27.3014 28.8919 28.0376 28.5624 28.8105 28.5624H28.8733C29.1412 28.9034 29.5574 29.1225 30.0248 29.1225Z" fill="url(#paint6_linear_2390_165622)"/>
<path fill-rule="evenodd" clip-rule="evenodd" d="M24.1217 33.4879L23.3063 32.5183H20.8926L22.7079 34.6768C23.1823 35.2409 23.8817 35.5665 24.6187 35.5665H25.1486C25.4138 35.8342 25.7816 35.9999 26.1882 35.9999C26.9965 35.9999 27.6518 35.3447 27.6518 34.5364C27.6518 33.728 26.9965 33.0728 26.1882 33.0728C25.6824 33.0728 25.2366 33.3293 24.9737 33.7193H24.6187C24.427 33.7193 24.2451 33.6346 24.1217 33.4879Z" fill="url(#paint7_linear_2390_165622)"/>
<path d="M51.504 21.6172C51.4575 21.183 51.262 20.8449 50.9173 20.603C50.5759 20.361 50.1318 20.2401 49.5849 20.2401C49.2004 20.2401 48.8707 20.2981 48.5956 20.4141C48.3205 20.5301 48.11 20.6875 47.9642 20.8864C47.8183 21.0852 47.7438 21.3123 47.7405 21.5675C47.7405 21.7796 47.7885 21.9635 47.8846 22.1193C47.9841 22.2751 48.1183 22.4077 48.2873 22.517C48.4564 22.6231 48.6436 22.7126 48.8491 22.7855C49.0546 22.8584 49.2618 22.9197 49.4706 22.9695L50.4251 23.2081C50.8096 23.2976 51.1791 23.4186 51.5338 23.571C51.8917 23.7235 52.2116 23.9157 52.4933 24.1477C52.7783 24.3797 53.0037 24.6598 53.1694 24.9879C53.3352 25.3161 53.418 25.7005 53.418 26.1413C53.418 26.7379 53.2656 27.2633 52.9606 27.7173C52.6557 28.1681 52.2149 28.5211 51.6382 28.7763C51.0648 29.0282 50.3704 29.1541 49.5551 29.1541C48.7629 29.1541 48.0752 29.0315 47.4919 28.7862C46.9119 28.541 46.4578 28.183 46.1297 27.7124C45.8049 27.2417 45.6292 26.6683 45.6027 25.9922H47.4173C47.4438 26.3468 47.5532 26.6418 47.7454 26.8771C47.9377 27.1125 48.1879 27.2881 48.4961 27.4041C48.8077 27.5201 49.1557 27.5781 49.5402 27.5781C49.9412 27.5781 50.2925 27.5185 50.5941 27.3991C50.8991 27.2765 51.1377 27.1075 51.3101 26.892C51.4824 26.6733 51.5702 26.4181 51.5736 26.1264C51.5702 25.8613 51.4924 25.6425 51.3399 25.4702C51.1874 25.2945 50.9736 25.1487 50.6986 25.0327C50.4268 24.9134 50.1086 24.8073 49.744 24.7145L48.5856 24.4162C47.7471 24.2008 47.0842 23.8743 46.597 23.4368C46.1131 22.996 45.8711 22.411 45.8711 21.6818C45.8711 21.0819 46.0335 20.5566 46.3584 20.1058C46.6865 19.6551 47.1323 19.3054 47.6957 19.0568C48.2592 18.8049 48.8972 18.679 49.6098 18.679C50.3323 18.679 50.9654 18.8049 51.5089 19.0568C52.0558 19.3054 52.485 19.6518 52.7966 20.0959C53.1081 20.5367 53.2689 21.0438 53.2788 21.6172H51.504ZM63.7776 22.2536H61.9182C61.8652 21.9486 61.7674 21.6785 61.6249 21.4432C61.4823 21.2045 61.305 21.0024 61.0929 20.8366C60.8808 20.6709 60.6388 20.5466 60.3671 20.4638C60.0986 20.3776 59.8086 20.3345 59.497 20.3345C58.9435 20.3345 58.453 20.4737 58.0254 20.7521C57.5979 21.0272 57.2631 21.4316 57.0212 21.9652C56.7792 22.4955 56.6582 23.1435 56.6582 23.9091C56.6582 24.688 56.7792 25.3442 57.0212 25.8778C57.2664 26.4081 57.6012 26.8092 58.0254 27.081C58.453 27.3494 58.9419 27.4837 59.4921 27.4837C59.797 27.4837 60.082 27.4439 60.3472 27.3643C60.6156 27.2815 60.8559 27.1605 61.068 27.0014C61.2835 26.8423 61.4641 26.6468 61.61 26.4148C61.7591 26.1828 61.8618 25.9176 61.9182 25.6193L63.7776 25.6293C63.708 26.1132 63.5572 26.5672 63.3252 26.9915C63.0965 27.4157 62.7965 27.7902 62.4253 28.1151C62.0541 28.4366 61.6199 28.6884 61.1227 28.8707C60.6256 29.0497 60.0737 29.1392 59.4672 29.1392C58.5723 29.1392 57.7735 28.9321 57.0709 28.5178C56.3682 28.1035 55.8147 27.5052 55.4104 26.723C55.006 25.9408 54.8038 25.0028 54.8038 23.9091C54.8038 22.812 55.0077 21.8741 55.4153 21.0952C55.823 20.313 56.3782 19.7147 57.0808 19.3004C57.7835 18.8861 58.5789 18.679 59.4672 18.679C60.034 18.679 60.5609 18.7585 61.0482 18.9176C61.5354 19.0767 61.9696 19.3104 62.3507 19.6186C62.7319 19.9235 63.0451 20.2981 63.2904 20.7422C63.5389 21.183 63.7013 21.6868 63.7776 22.2536ZM65.4667 29V18.8182H67.3111V23.4964H67.4354L71.4077 18.8182H73.6598L69.7223 23.3871L73.6946 29H71.4773L68.4397 24.6349L67.3111 25.9673V29H65.4667ZM76.2488 29H74.2801L77.8646 18.8182H80.1416L83.731 29H81.7623L79.0428 20.9062H78.9633L76.2488 29ZM76.3134 25.0078H81.6828V26.4893H76.3134V25.0078ZM93.4393 18.8182V29H91.7987L87.0011 22.0646H86.9166V29H85.0721V18.8182H86.7227L91.5153 25.7585H91.6048V18.8182H93.4393ZM103.816 18.8182V29H102.176L97.3781 22.0646H97.2935V29H95.4491V18.8182H97.0997L101.892 25.7585H101.982V18.8182H103.816ZM105.826 29V18.8182H112.448V20.3643H107.67V23.1286H112.105V24.6747H107.67V27.4538H112.488V29H105.826ZM114.33 29V18.8182H118.148C118.93 18.8182 119.587 18.9541 120.117 19.2259C120.65 19.4976 121.053 19.8788 121.325 20.3693C121.6 20.8565 121.738 21.425 121.738 22.0746C121.738 22.7275 121.598 23.2943 121.32 23.7749C121.045 24.2521 120.639 24.6217 120.102 24.8835C119.565 25.142 118.905 25.2713 118.123 25.2713H115.404V23.7401H117.875C118.332 23.7401 118.707 23.6771 118.998 23.5511C119.29 23.4219 119.505 23.2346 119.645 22.9893C119.787 22.7408 119.858 22.4358 119.858 22.0746C119.858 21.7133 119.787 21.4051 119.645 21.1499C119.502 20.8913 119.285 20.6958 118.993 20.5632C118.702 20.4273 118.325 20.3594 117.865 20.3594H116.174V29H114.33ZM119.59 24.3864L122.11 29H120.052L117.576 24.3864H119.59Z" fill="#F6F7F9"/>
<path d="M128.254 29V19.06H131.67C134.022 19.06 135.198 19.97 135.198 21.818C135.198 22.924 134.54 23.666 133.448 23.862C134.806 24.044 135.618 24.898 135.618 26.186C135.618 27.992 134.4 29 132.23 29H128.254ZM129.458 27.824H132.23C133.588 27.824 134.358 27.236 134.358 26.186C134.358 25.136 133.588 24.534 132.23 24.534H129.458V27.824ZM129.458 23.358H131.67C133.126 23.358 133.938 22.812 133.938 21.818C133.938 20.768 133.182 20.236 131.67 20.236H129.458V23.358ZM137.51 19.06H143.754V20.236H138.714V23.442H143.586V24.59H138.714V27.824H143.866V29H137.51V19.06ZM152.4 19.06V20.236H149.306V29H148.102V20.236H145.008V19.06H152.4ZM151.788 29L155.372 19.06H156.996L160.58 29H159.264L158.27 26.172H154.098L153.104 29H151.788ZM154.504 24.996H157.864L156.184 20.11L154.504 24.996Z" fill="#E8C3F8"/>
<defs>
<linearGradient id="paint0_linear_2390_165622" x1="20.8409" y1="25.8894" x2="12.0508" y2="27.6874" gradientUnits="userSpaceOnUse">
<stop offset="0.530553" stop-color="#8300BF"/>
<stop offset="1" stop-color="#24245B" stop-opacity="0.4"/>
</linearGradient>
<linearGradient id="paint1_linear_2390_165622" x1="32.2416" y1="23.2967" x2="0.665979" y2="23.3296" gradientUnits="userSpaceOnUse">
<stop offset="0.69683" stop-color="#8300BF"/>
<stop offset="1" stop-color="#24245B" stop-opacity="0"/>
</linearGradient>
<linearGradient id="paint2_linear_2390_165622" x1="19.8792" y1="13.4281" x2="5.13021" y2="16.4933" gradientUnits="userSpaceOnUse">
<stop offset="0.69683" stop-color="#8300BF"/>
<stop offset="1" stop-color="#24245B" stop-opacity="0.4"/>
</linearGradient>
<linearGradient id="paint3_linear_2390_165622" x1="22.1101" y1="18.238" x2="14.8954" y2="13.7129" gradientUnits="userSpaceOnUse">
<stop offset="0.624582" stop-color="#8300BF"/>
<stop offset="1" stop-color="#24245B" stop-opacity="0.4"/>
</linearGradient>
<linearGradient id="paint4_linear_2390_165622" x1="28.27" y1="17.7833" x2="19.7211" y2="19.5021" gradientUnits="userSpaceOnUse">
<stop offset="0.527344" stop-color="#8300BF"/>
<stop offset="1" stop-color="#24245B" stop-opacity="0.4"/>
</linearGradient>
<linearGradient id="paint5_linear_2390_165622" x1="28.1705" y1="33.0728" x2="1.97714" y2="20.1237" gradientUnits="userSpaceOnUse">
<stop offset="0.69683" stop-color="#8300BF"/>
<stop offset="1" stop-color="#24245B" stop-opacity="0"/>
</linearGradient>
<linearGradient id="paint6_linear_2390_165622" x1="30.7637" y1="26.5221" x2="22.9652" y2="28.5573" gradientUnits="userSpaceOnUse">
<stop offset="0.37659" stop-color="#8300BF"/>
<stop offset="1" stop-color="#24245B" stop-opacity="0.4"/>
</linearGradient>
<linearGradient id="paint7_linear_2390_165622" x1="27.2681" y1="35.5594" x2="22.6519" y2="31.5117" gradientUnits="userSpaceOnUse">
<stop offset="0.417312" stop-color="#8300BF"/>
<stop offset="1" stop-color="#24245B" stop-opacity="0.4"/>
</linearGradient>
</defs>
</svg>
