<svg width="135" height="24" viewBox="0 0 135 24" fill="none" xmlns="http://www.w3.org/2000/svg">
<g clip-path="url(#clip0_639_86890)">
<path fill-rule="evenodd" clip-rule="evenodd" d="M12.2727 24C9.84541 24 7.47261 23.2962 5.45437 21.9776C3.43613 20.659 1.86311 18.785 0.934208 16.5922C0.00531772 14.3995 -0.237723 11.9867 0.235823 9.65895C0.709368 7.33115 1.87823 5.19296 3.5946 3.51472C5.31098 1.83649 7.49776 0.693605 9.87847 0.230582C12.2592 -0.232441 14.7267 0.00519955 16.9693 0.913448C19.2119 1.82171 21.1286 3.35977 22.4771 5.33316C23.8257 7.30655 24.5455 9.62663 24.5455 12C24.5455 15.1826 23.2524 18.2348 20.9508 20.4853C18.6493 22.7357 15.5277 24 12.2727 24ZM9.63785 19.9412C8.0315 19.9412 6.46125 19.4755 5.12565 18.6028C3.79004 17.7303 2.74906 16.49 2.13435 15.039C1.51964 13.5879 1.35881 11.9912 1.67218 10.4507C1.98556 8.9103 2.75908 7.49531 3.89491 6.38472C5.03075 5.27412 6.4779 4.51779 8.05336 4.21138C9.6288 3.90496 11.2618 4.06222 12.7458 4.66328C14.2299 5.26433 15.4983 6.28217 16.3908 7.58813C17.2832 8.89402 17.7595 10.4293 17.7595 12C17.7595 14.1061 16.9038 16.126 15.3807 17.6152C13.8576 19.1045 11.7918 19.9412 9.63785 19.9412Z" fill="#1652F0"/>
<path d="M7.76035 11.9994C7.76035 13.1694 8.23568 14.2915 9.08181 15.1188C9.50077 15.5284 9.99812 15.8534 10.5455 16.075C11.0929 16.2967 11.6796 16.4109 12.2721 16.4109C12.8646 16.4109 13.4513 16.2967 13.9986 16.075C14.5461 15.8534 15.0434 15.5284 15.4624 15.1188C15.8814 14.7091 16.2136 14.2228 16.4404 13.6876C16.6671 13.1524 16.7839 12.5787 16.7839 11.9994C16.7839 11.4201 16.6671 10.8464 16.4404 10.3111C16.2136 9.77594 15.8814 9.28964 15.4624 8.87999C15.0434 8.47034 14.5461 8.14537 13.9986 7.92367C13.4513 7.70197 12.8646 7.58789 12.2721 7.58789C11.0755 7.58789 9.92794 8.05267 9.08181 8.87999C8.23568 9.70732 7.76035 10.8294 7.76035 11.9994Z" fill="url(#paint0_linear_639_86890)"/>
<path d="M36.8182 17.7534H39.4083V10.2083H39.4422L43.539 17.7534H44.5886L48.6854 10.2083H48.7193V17.7534H51.2925V6.24658H48.313L44.0638 14.2685H44.0299L39.8146 6.24658H36.8182V17.7534Z" fill="#253858"/>
<path d="M54.4944 17.7534H63.433V15.5507H57.0846V12.9534H62.8404V10.8658H57.0846V8.44936H63.4499V6.24658H54.4944V17.7534Z" fill="#253858"/>
<path d="M69.5735 17.7534H72.1635V8.46578H76.3789V6.24658H65.3581V8.46578H69.5735V17.7534Z" fill="#253858"/>
<path d="M85.8431 17.7534H88.6536L83.3034 6.24658H80.8826L75.5503 17.7534H78.3437L79.1223 15.9781H85.0646L85.8431 17.7534ZM80.0872 13.7753L82.0846 9.18908H82.1191L84.1165 13.7753H80.0872Z" fill="#253858"/>
<path d="M95.4358 18C98.382 18 100.721 16.2123 101.04 13.2986H98.5538C98.3513 14.3585 97.0949 15.7972 95.4358 15.7972C93.2689 15.7972 91.7962 14.252 91.7962 12C91.7962 9.74797 93.2689 8.20275 95.4358 8.20275C97.427 8.20275 98.3513 9.42255 98.6052 10.5617L101.04 10.5082C100.721 7.47946 98.2969 6 95.4358 6C91.813 6 89.2058 8.49863 89.2058 12C89.2058 15.5014 91.813 18 95.4358 18Z" fill="#253858"/>
<path d="M103.427 17.7534H112.365V15.5507H106.016V12.9534H111.772V10.8658H106.016V8.44936H112.382V6.24658H103.427V17.7534Z" fill="#253858"/>
<path d="M115.052 17.7534H123.804V15.5342H117.643V6.24658H115.052V17.7534Z" fill="#253858"/>
<path d="M126.248 17.7534H135V15.5342H128.838V6.24658H126.248V17.7534Z" fill="#253858"/>
</g>
<defs>
<linearGradient id="paint0_linear_639_86890" x1="16.7839" y1="11.9994" x2="7.76035" y2="11.9994" gradientUnits="userSpaceOnUse">
<stop stop-color="#1652F0" stop-opacity="0"/>
<stop offset="1" stop-color="#1652F0"/>
</linearGradient>
<clipPath id="clip0_639_86890">
<rect width="135" height="24" fill="white"/>
</clipPath>
</defs>
</svg>
