<svg width="16" height="16" viewBox="0 0 16 16" fill="none" xmlns="http://www.w3.org/2000/svg">
<path d="M2.55616 7.37548C2.87179 7.37548 3.86707 7.37548 3.86707 7.37548C4.06568 5.36068 5.21468 3.54695 6.96501 2.54306C7.26022 2.37388 7.63318 2.48124 7.79872 2.78243C7.96426 3.08373 7.85921 3.46512 7.56449 3.63429C6.01999 4.51994 5.06065 6.19315 5.06065 8.00111C5.06065 9.80895 6.01999 11.4822 7.56424 12.3678C7.85908 12.5371 7.96402 12.9182 7.79835 13.2198C7.6862 13.4243 7.47829 13.5394 7.26401 13.5394C7.16263 13.5394 7.05978 13.5136 6.96501 13.4592C5.21468 12.4554 4.06568 10.6416 3.86707 8.62675C3.86707 8.62675 2.87179 8.62675 2.55616 8.62675C2.24053 8.62675 1.9996 8.4205 1.9996 8.00111C1.9996 7.58173 2.24053 7.37548 2.55616 7.37548Z" fill="#6C707A"/>
<path d="M13.999 8.15723H12.0511" stroke="#6C707A" stroke-width="1.04273" stroke-linecap="round" stroke-linejoin="round"/>
<rect x="-0.521363" y="0.521363" width="4.52286" height="4.64487" rx="2.26143" transform="matrix(-1 0 0 1 11.2851 5.30957)" stroke="#6C707A" stroke-width="1.04273"/>
</svg>
