<svg width="17" height="16" viewBox="0 0 17 16" fill="none" xmlns="http://www.w3.org/2000/svg">
<path d="M3.00065 7.37548C3.31628 7.37548 4.31156 7.37548 4.31156 7.37548C4.51016 5.36068 5.65917 3.54695 7.40949 2.54306C7.7047 2.37388 8.07767 2.48124 8.24321 2.78243C8.40875 3.08373 8.3037 3.46512 8.00898 3.63429C6.46448 4.51994 5.50514 6.19315 5.50514 8.00111C5.50514 9.80895 6.46448 11.4822 8.00873 12.3678C8.30357 12.5371 8.40851 12.9182 8.24284 13.2198C8.13068 13.4243 7.92278 13.5394 7.7085 13.5394C7.60712 13.5394 7.50426 13.5136 7.40949 13.4592C5.65917 12.4554 4.51016 10.6416 4.31156 8.62675C4.31156 8.62675 3.31628 8.62675 3.00065 8.62675C2.68502 8.62675 2.44409 8.4205 2.44409 8.00111C2.44409 7.58173 2.68502 7.37548 3.00065 7.37548Z" fill="white"/>
<path d="M14.4435 8.15723H12.4955" stroke="white" stroke-width="1.04273" stroke-linecap="round" stroke-linejoin="round"/>
<rect x="-0.521363" y="0.521363" width="4.52286" height="4.64487" rx="2.26143" transform="matrix(-1 0 0 1 11.7296 5.30957)" stroke="white" stroke-width="1.04273"/>
</svg>
