<svg width="160" height="52" viewBox="0 0 160 52" fill="none" xmlns="http://www.w3.org/2000/svg">
<g clip-path="url(#clip0_639_84382)">
<path d="M18.0909 24.0908L15.286 21.2859M15.286 30.714L18.112 27.888M21.9074 27.9091L24.7123 30.714M24.7123 21.2859L21.8858 24.1123M26.6667 25.9999C26.6667 29.6818 23.6819 32.6666 20 32.6666C16.3181 32.6666 13.3333 29.6818 13.3333 25.9999C13.3333 22.318 16.3181 19.3333 20 19.3333C23.6819 19.3333 26.6667 22.318 26.6667 25.9999ZM22.6667 25.9999C22.6667 27.4727 21.4728 28.6666 20 28.6666C18.5273 28.6666 17.3333 27.4727 17.3333 25.9999C17.3333 24.5272 18.5273 23.3333 20 23.3333C21.4728 23.3333 22.6667 24.5272 22.6667 25.9999Z" stroke="#E3E5E8" stroke-width="1.66667" stroke-linecap="round" stroke-linejoin="round"/>
</g>
<path d="M38.798 31.028C38.35 31.028 38.126 30.944 38.126 30.776C38.126 30.7387 38.1307 30.706 38.14 30.678C38.1493 30.6407 38.1587 30.5987 38.168 30.552L41.416 21.41C41.472 21.2513 41.682 21.172 42.046 21.172H42.536C42.9093 21.172 43.1193 21.2513 43.166 21.41L46.414 30.566C46.442 30.6407 46.456 30.7107 46.456 30.776C46.456 30.944 46.246 31.028 45.826 31.028H45.574C45.4153 31.028 45.28 31.0093 45.168 30.972C45.056 30.9347 44.9813 30.874 44.944 30.79L44.202 28.662H40.324L39.596 30.79C39.5587 30.874 39.4887 30.9347 39.386 30.972C39.2833 31.0093 39.1573 31.028 39.008 31.028H38.798ZM40.772 27.374H43.754L42.48 23.678C42.4427 23.5473 42.41 23.412 42.382 23.272C42.354 23.1227 42.326 22.978 42.298 22.838H42.27C42.242 22.978 42.2093 23.1227 42.172 23.272C42.144 23.412 42.1067 23.5473 42.06 23.678L40.772 27.374ZM51.1499 31.098C50.7486 31.098 50.3659 31.0093 50.0019 30.832C49.6473 30.6453 49.3253 30.384 49.0359 30.048C48.9799 30.356 48.9053 30.608 48.8119 30.804C48.7746 30.8973 48.7186 30.958 48.6439 30.986C48.5693 31.014 48.4619 31.028 48.3219 31.028H48.2379C47.8833 31.028 47.7059 30.9113 47.7059 30.678V20.808C47.7059 20.5747 47.9159 20.458 48.3359 20.458H48.4899C48.9193 20.458 49.1339 20.5747 49.1339 20.808V24.224C49.3673 24.0373 49.6286 23.8833 49.9179 23.762C50.2166 23.6407 50.5666 23.58 50.9679 23.58C51.8359 23.58 52.5313 23.9067 53.0539 24.56C53.5766 25.2133 53.8379 26.1373 53.8379 27.332C53.8379 28.088 53.7259 28.7507 53.5019 29.32C53.2873 29.88 52.9793 30.3187 52.5779 30.636C52.1766 30.944 51.7006 31.098 51.1499 31.098ZM50.8139 29.88C51.3086 29.88 51.6913 29.656 51.9619 29.208C52.2326 28.7507 52.3679 28.102 52.3679 27.262C52.3679 26.4687 52.2233 25.862 51.9339 25.442C51.6539 25.0127 51.2246 24.798 50.6459 24.798C50.3753 24.798 50.1093 24.8447 49.8479 24.938C49.5866 25.022 49.3486 25.148 49.1339 25.316V28.956C49.3766 29.236 49.6426 29.46 49.9319 29.628C50.2213 29.796 50.5153 29.88 50.8139 29.88ZM58.5606 31.098C57.4966 31.098 56.68 30.776 56.1106 30.132C55.5506 29.488 55.2706 28.564 55.2706 27.36C55.2706 26.1467 55.5506 25.2133 56.1106 24.56C56.68 23.9067 57.4966 23.58 58.5606 23.58C59.6153 23.58 60.418 23.9067 60.9686 24.56C61.5286 25.204 61.8086 26.1373 61.8086 27.36C61.8086 28.5733 61.5333 29.502 60.9826 30.146C60.4413 30.7807 59.634 31.098 58.5606 31.098ZM58.5326 29.908C59.158 29.908 59.6153 29.698 59.9046 29.278C60.194 28.8487 60.3386 28.2047 60.3386 27.346C60.3386 26.478 60.194 25.834 59.9046 25.414C59.6153 24.9847 59.158 24.77 58.5326 24.77C57.9166 24.77 57.464 24.98 57.1746 25.4C56.8946 25.82 56.7546 26.4687 56.7546 27.346C56.7546 28.2047 56.8946 28.8487 57.1746 29.278C57.464 29.698 57.9166 29.908 58.5326 29.908ZM65.7333 31.098C65.024 31.098 64.4733 30.902 64.0813 30.51C63.6987 30.118 63.5073 29.558 63.5073 28.83V24C63.5073 23.7667 63.722 23.65 64.1513 23.65H64.3053C64.7347 23.65 64.9493 23.7667 64.9493 24V28.662C64.9493 29.0447 65.052 29.3433 65.2573 29.558C65.472 29.7633 65.7893 29.866 66.2093 29.866C66.5173 29.866 66.8067 29.7773 67.0773 29.6C67.3573 29.4227 67.5907 29.2033 67.7773 28.942V24C67.7773 23.7667 67.992 23.65 68.4213 23.65H68.5753C69.0047 23.65 69.2193 23.7667 69.2193 24V28.816C69.2193 29.2267 69.2333 29.558 69.2613 29.81C69.2893 30.062 69.3173 30.2533 69.3453 30.384C69.3733 30.5147 69.3873 30.6033 69.3873 30.65C69.3873 30.7247 69.3453 30.7853 69.2613 30.832C69.1867 30.8787 69.0933 30.916 68.9813 30.944C68.8693 30.972 68.7573 30.9907 68.6453 31C68.5333 31.0093 68.4493 31.014 68.3933 31.014C68.272 31.014 68.1787 30.9627 68.1133 30.86C68.048 30.748 68.0013 30.6173 67.9733 30.468C67.9453 30.3093 67.9173 30.1647 67.8893 30.034C67.6187 30.342 67.292 30.5987 66.9093 30.804C66.536 31 66.144 31.098 65.7333 31.098ZM73.5683 31.098C73.3536 31.098 73.1343 31.0653 72.9103 31C72.6863 30.9347 72.481 30.8273 72.2943 30.678C72.117 30.5287 71.9723 30.3233 71.8603 30.062C71.7483 29.7913 71.6923 29.46 71.6923 29.068V24.868H71.1323C70.9176 24.868 70.8103 24.7 70.8103 24.364V24.182C70.8103 23.846 70.9176 23.678 71.1323 23.678H71.6923L71.8743 22.25C71.893 22.0167 72.0703 21.9 72.4063 21.9H72.6303C72.9663 21.9 73.1343 22.0167 73.1343 22.25V23.678H74.1703C74.385 23.678 74.4923 23.846 74.4923 24.182V24.364C74.4923 24.7 74.385 24.868 74.1703 24.868H73.1343V28.998C73.1343 29.3527 73.195 29.5953 73.3163 29.726C73.447 29.8473 73.615 29.908 73.8203 29.908C73.979 29.908 74.091 29.8987 74.1563 29.88C74.231 29.852 74.2963 29.838 74.3523 29.838C74.427 29.838 74.4876 29.894 74.5343 30.006C74.581 30.118 74.6183 30.2347 74.6463 30.356C74.6743 30.4773 74.6883 30.5567 74.6883 30.594C74.6883 30.7433 74.623 30.8553 74.4923 30.93C74.3616 30.9953 74.2076 31.0373 74.0303 31.056C73.8623 31.084 73.7083 31.098 73.5683 31.098ZM81.9408 31.098C81.3061 31.098 80.7508 31.028 80.2748 30.888C79.8081 30.7387 79.4581 30.58 79.2248 30.412C79.0288 30.272 78.9307 30.1367 78.9307 30.006C78.9307 29.9127 78.9634 29.796 79.0288 29.656C79.1034 29.516 79.1874 29.39 79.2808 29.278C79.3834 29.166 79.4628 29.11 79.5188 29.11C79.5561 29.11 79.6028 29.124 79.6588 29.152C79.7148 29.18 79.7754 29.2173 79.8408 29.264C80.0274 29.3573 80.2888 29.474 80.6248 29.614C80.9608 29.7447 81.3621 29.81 81.8288 29.81C82.1461 29.81 82.4308 29.754 82.6828 29.642C82.9348 29.53 83.1354 29.3667 83.2848 29.152C83.4434 28.928 83.5228 28.662 83.5228 28.354C83.5228 27.9993 83.4201 27.7193 83.2148 27.514C83.0094 27.2993 82.7434 27.122 82.4168 26.982C82.0901 26.8327 81.7494 26.6833 81.3948 26.534C81.1054 26.422 80.8254 26.296 80.5548 26.156C80.2841 26.016 80.0414 25.848 79.8268 25.652C79.6121 25.4467 79.4394 25.1947 79.3088 24.896C79.1781 24.588 79.1128 24.21 79.1128 23.762C79.1128 23.2113 79.2481 22.74 79.5188 22.348C79.7988 21.9467 80.1768 21.6387 80.6528 21.424C81.1381 21.2093 81.6794 21.102 82.2768 21.102C82.5194 21.102 82.7668 21.1253 83.0188 21.172C83.2801 21.2093 83.5228 21.2653 83.7468 21.34C83.9801 21.4147 84.1714 21.5033 84.3208 21.606C84.5168 21.7273 84.6148 21.858 84.6148 21.998C84.6148 22.082 84.5821 22.194 84.5168 22.334C84.4514 22.474 84.3768 22.6 84.2928 22.712C84.2088 22.824 84.1341 22.88 84.0688 22.88C84.0314 22.88 83.9801 22.866 83.9148 22.838C83.8494 22.8007 83.7654 22.7587 83.6628 22.712C83.5134 22.6373 83.3314 22.5673 83.1168 22.502C82.9021 22.4367 82.6361 22.404 82.3188 22.404C81.9641 22.404 81.6608 22.46 81.4088 22.572C81.1661 22.6747 80.9794 22.8287 80.8488 23.034C80.7181 23.23 80.6528 23.468 80.6528 23.748C80.6528 24.0653 80.7368 24.3173 80.9048 24.504C81.0728 24.6907 81.2921 24.8447 81.5628 24.966C81.8334 25.0873 82.1274 25.2087 82.4448 25.33C82.7434 25.4513 83.0468 25.5867 83.3548 25.736C83.6628 25.876 83.9474 26.0533 84.2088 26.268C84.4701 26.4827 84.6754 26.7533 84.8248 27.08C84.9834 27.3973 85.0628 27.794 85.0628 28.27C85.0628 28.7367 84.9834 29.1473 84.8248 29.502C84.6754 29.8473 84.4561 30.1413 84.1668 30.384C83.8868 30.6173 83.5554 30.7947 83.1728 30.916C82.7994 31.0373 82.3888 31.098 81.9408 31.098ZM90.7608 31.098C89.2114 31.098 88.0681 30.692 87.3308 29.88C86.5934 29.068 86.2248 27.8033 86.2248 26.086C86.2248 22.7633 87.7461 21.102 90.7888 21.102C91.1061 21.102 91.4141 21.1253 91.7128 21.172C92.0208 21.2187 92.3008 21.2793 92.5528 21.354C92.8141 21.4287 93.0288 21.5173 93.1968 21.62C93.4301 21.7507 93.5468 21.8813 93.5468 22.012C93.5468 22.096 93.5094 22.2173 93.4348 22.376C93.3694 22.5253 93.2901 22.6607 93.1968 22.782C93.1034 22.9033 93.0194 22.964 92.9448 22.964C92.8888 22.964 92.7768 22.9173 92.6088 22.824C92.4501 22.7307 92.2214 22.6373 91.9228 22.544C91.6241 22.4507 91.2508 22.404 90.8028 22.404C89.7668 22.404 89.0014 22.7027 88.5068 23.3C88.0121 23.888 87.7648 24.8213 87.7648 26.1C87.7648 27.36 88.0074 28.2933 88.4928 28.9C88.9874 29.5067 89.7434 29.81 90.7608 29.81C91.2274 29.81 91.6241 29.754 91.9508 29.642C92.2774 29.53 92.5388 29.4227 92.7348 29.32C92.9401 29.208 93.0708 29.152 93.1268 29.152C93.2201 29.152 93.3088 29.2127 93.3928 29.334C93.4861 29.4553 93.5608 29.586 93.6168 29.726C93.6821 29.866 93.7148 29.9687 93.7148 30.034C93.7148 30.118 93.6728 30.2067 93.5888 30.3C93.5141 30.3933 93.4021 30.4773 93.2528 30.552C93.0754 30.6547 92.8514 30.748 92.5808 30.832C92.3194 30.9067 92.0301 30.9673 91.7128 31.014C91.4048 31.07 91.0874 31.098 90.7608 31.098ZM96.0267 31.028C95.5974 31.028 95.3827 30.9113 95.3827 30.678V21.522C95.3827 21.2887 95.5974 21.172 96.0267 21.172H96.2367C96.6661 21.172 96.8807 21.2887 96.8807 21.522V25.652H96.9367L100.087 21.382C100.152 21.3073 100.255 21.256 100.395 21.228C100.544 21.1907 100.703 21.172 100.871 21.172H101.165C101.547 21.172 101.739 21.2373 101.739 21.368C101.739 21.452 101.697 21.5453 101.613 21.648L98.3367 25.946L102.243 30.58C102.317 30.6827 102.355 30.7667 102.355 30.832C102.355 30.9627 102.135 31.028 101.697 31.028H101.347C101.179 31.028 101.02 31.0187 100.871 31C100.731 30.9813 100.623 30.9207 100.549 30.818L96.9367 26.38L96.8807 26.394V30.678C96.8807 30.9113 96.6661 31.028 96.2367 31.028H96.0267ZM103.001 31.028C102.553 31.028 102.329 30.944 102.329 30.776C102.329 30.7387 102.334 30.706 102.343 30.678C102.352 30.6407 102.362 30.5987 102.371 30.552L105.619 21.41C105.675 21.2513 105.885 21.172 106.249 21.172H106.739C107.112 21.172 107.322 21.2513 107.369 21.41L110.617 30.566C110.645 30.6407 110.659 30.7107 110.659 30.776C110.659 30.944 110.449 31.028 110.029 31.028H109.777C109.618 31.028 109.483 31.0093 109.371 30.972C109.259 30.9347 109.184 30.874 109.147 30.79L108.405 28.662H104.527L103.799 30.79C103.762 30.874 103.692 30.9347 103.589 30.972C103.486 31.0093 103.36 31.028 103.211 31.028H103.001ZM104.975 27.374H107.957L106.683 23.678C106.646 23.5473 106.613 23.412 106.585 23.272C106.557 23.1227 106.529 22.978 106.501 22.838H106.473C106.445 22.978 106.412 23.1227 106.375 23.272C106.347 23.412 106.31 23.5473 106.263 23.678L104.975 27.374ZM112.609 31.028C112.18 31.028 111.965 30.9113 111.965 30.678V21.522C111.965 21.2887 112.18 21.172 112.609 21.172H112.987C113.164 21.172 113.304 21.1953 113.407 21.242C113.51 21.2793 113.598 21.354 113.673 21.466L117.705 27.598C117.808 27.738 117.896 27.8733 117.971 28.004C118.046 28.1347 118.116 28.2747 118.181 28.424L118.237 28.41C118.228 28.2513 118.218 28.1067 118.209 27.976C118.209 27.836 118.209 27.6633 118.209 27.458V21.522C118.209 21.2887 118.424 21.172 118.853 21.172H119.035C119.464 21.172 119.679 21.2887 119.679 21.522V30.678C119.679 30.9113 119.464 31.028 119.035 31.028H118.685C118.536 31.028 118.41 31.0093 118.307 30.972C118.214 30.9347 118.134 30.8693 118.069 30.776L113.939 24.518C113.846 24.378 113.762 24.2427 113.687 24.112C113.612 23.972 113.538 23.8273 113.463 23.678L113.407 23.692C113.426 23.8507 113.435 24 113.435 24.14C113.435 24.2707 113.435 24.4387 113.435 24.644V30.678C113.435 30.9113 113.22 31.028 112.791 31.028H112.609ZM122.672 31.028C122.242 31.028 122.028 30.9113 122.028 30.678V21.522C122.028 21.2887 122.242 21.172 122.672 21.172H123.05C123.227 21.172 123.367 21.1953 123.47 21.242C123.572 21.2793 123.661 21.354 123.736 21.466L127.768 27.598C127.87 27.738 127.959 27.8733 128.034 28.004C128.108 28.1347 128.178 28.2747 128.244 28.424L128.3 28.41C128.29 28.2513 128.281 28.1067 128.272 27.976C128.272 27.836 128.272 27.6633 128.272 27.458V21.522C128.272 21.2887 128.486 21.172 128.916 21.172H129.098C129.527 21.172 129.742 21.2887 129.742 21.522V30.678C129.742 30.9113 129.527 31.028 129.098 31.028H128.748C128.598 31.028 128.472 31.0093 128.37 30.972C128.276 30.9347 128.197 30.8693 128.132 30.776L124.002 24.518C123.908 24.378 123.824 24.2427 123.75 24.112C123.675 23.972 123.6 23.8273 123.526 23.678L123.47 23.692C123.488 23.8507 123.498 24 123.498 24.14C123.498 24.2707 123.498 24.4387 123.498 24.644V30.678C123.498 30.9113 123.283 31.028 122.854 31.028H122.672ZM132.664 31C132.356 31 132.202 30.846 132.202 30.538V21.662C132.202 21.354 132.356 21.2 132.664 21.2H137.55C137.765 21.2 137.872 21.368 137.872 21.704V21.984C137.872 22.32 137.765 22.488 137.55 22.488H133.7V25.344H137.144C137.359 25.344 137.466 25.512 137.466 25.848V26.128C137.466 26.464 137.359 26.632 137.144 26.632H133.7V29.712H137.564C137.779 29.712 137.886 29.88 137.886 30.216V30.496C137.886 30.832 137.779 31 137.564 31H132.664ZM140.447 31.028C140.017 31.028 139.803 30.9113 139.803 30.678V21.662C139.803 21.354 139.957 21.2 140.265 21.2H142.729C143.849 21.2 144.693 21.4053 145.263 21.816C145.841 22.2173 146.131 22.852 146.131 23.72C146.131 24.2987 145.981 24.784 145.683 25.176C145.393 25.568 145.001 25.8573 144.507 26.044V26.1C144.777 26.184 145.001 26.3707 145.179 26.66C145.365 26.9493 145.538 27.304 145.697 27.724L146.831 30.566C146.868 30.6687 146.887 30.7433 146.887 30.79C146.887 30.9487 146.663 31.028 146.215 31.028H145.949C145.79 31.028 145.655 31.0093 145.543 30.972C145.431 30.9253 145.356 30.8647 145.319 30.79L144.241 28.046C144.054 27.57 143.821 27.248 143.541 27.08C143.27 26.912 142.873 26.828 142.351 26.828H141.301V30.678C141.301 30.9113 141.086 31.028 140.657 31.028H140.447ZM141.301 25.526H142.995C143.293 25.526 143.559 25.456 143.793 25.316C144.035 25.176 144.227 24.9847 144.367 24.742C144.516 24.4993 144.591 24.238 144.591 23.958C144.591 23.4633 144.437 23.0947 144.129 22.852C143.821 22.6093 143.41 22.488 142.897 22.488H141.301V25.526Z" fill="#FCFCFD"/>
<defs>
<clipPath id="clip0_639_84382">
<rect width="16" height="16" fill="white" transform="translate(12 18)"/>
</clipPath>
</defs>
</svg>
