<svg width="50" height="36" viewBox="0 0 50 36" fill="none" xmlns="http://www.w3.org/2000/svg">
<path fill-rule="evenodd" clip-rule="evenodd" d="M29.7101 24.0019C30.9225 24.0019 31.9054 23.0191 31.9054 21.8067C31.9054 20.5942 30.9225 19.6114 29.7101 19.6114C28.9941 19.6114 28.3582 19.9541 27.9575 20.4844H18.4026H12.8633V23.2551L28.0603 23.2551C28.4627 23.713 29.0526 24.0019 29.7101 24.0019Z" fill="url(#paint0_linear_1408_104393)"/>
<path fill-rule="evenodd" clip-rule="evenodd" d="M19.6331 9.71689C18.347 8.41062 16.5905 7.67503 14.7574 7.67503H0.275391V10.4458H14.7574C15.8481 10.4458 16.8933 10.8835 17.6585 11.6607L21.4838 15.5461C22.7698 16.8524 24.5263 17.588 26.3594 17.588H45.8496C46.2523 18.066 46.8554 18.3697 47.5294 18.3697C48.7419 18.3697 49.7248 17.3869 49.7248 16.1744C49.7248 14.962 48.7419 13.9792 47.5294 13.9792C46.8293 13.9792 46.2057 14.3069 45.8037 14.8173H26.3594C25.2687 14.8173 24.2235 14.3796 23.4583 13.6023L19.6331 9.71689Z" fill="url(#paint1_linear_1408_104393)"/>
<path fill-rule="evenodd" clip-rule="evenodd" d="M28.346 4.39055C29.5584 4.39055 30.5413 3.40769 30.5413 2.19528C30.5413 0.982859 29.5584 0 28.346 0C27.6594 0 27.0465 0.315099 26.644 0.808555H17.16C15.3453 0.808555 13.6048 1.5295 12.3217 2.81277L7.45886 7.67609H11.3772L14.2811 4.77183C15.0446 4.00827 16.0802 3.57929 17.16 3.57929H26.6418C27.0443 4.0743 27.6582 4.39055 28.346 4.39055Z" fill="url(#paint2_linear_1408_104393)"/>
<path fill-rule="evenodd" clip-rule="evenodd" d="M25.3186 4.72614L24.1307 3.58168H20.1372L23.3961 6.72143C24.6711 7.94985 26.3727 8.63618 28.1433 8.63618H31.1127C31.5143 9.07777 32.0935 9.35498 32.7374 9.35498C33.9499 9.35498 34.9328 8.37212 34.9328 7.1597C34.9328 5.94728 33.9499 4.96443 32.7374 4.96443C32.0089 4.96443 31.3633 5.31923 30.9639 5.86545H28.1433C27.0898 5.86545 26.0773 5.45707 25.3186 4.72614Z" fill="url(#paint3_linear_1408_104393)"/>
<path fill-rule="evenodd" clip-rule="evenodd" d="M40.9219 12.0656C42.1344 12.0656 43.1173 11.0827 43.1173 9.87028C43.1173 8.65786 42.1344 7.675 40.9219 7.675C40.2771 7.675 39.6972 7.95301 39.2955 8.39571H38.8517C37.4306 8.39571 36.067 8.95716 35.0579 9.95779L30.1509 14.8237H34.086L37.009 11.9252C37.4991 11.4391 38.1614 11.1664 38.8517 11.1664H39.1499C39.5494 11.7116 40.1943 12.0656 40.9219 12.0656Z" fill="url(#paint4_linear_1408_104393)"/>
<path fill-rule="evenodd" clip-rule="evenodd" d="M7.11689 16.3418C5.82887 15.0185 4.06061 14.2721 2.21393 14.2721H0.275391V17.0428H2.21393C3.31274 17.0428 4.36488 17.487 5.13127 18.2743L7.96081 21.1813C9.24883 22.5046 11.0171 23.251 12.8638 23.251C15.8213 23.251 18.6502 24.4602 20.6941 26.5978L22.6697 28.6642C23.9605 30.0142 25.7472 30.7779 27.6151 30.7779H40.4366C40.8387 31.2855 41.4606 31.6112 42.1585 31.6112C43.371 31.6112 44.3539 30.6284 44.3539 29.4159C44.3539 28.2035 43.371 27.2207 42.1585 27.2207C41.4823 27.2207 40.8775 27.5264 40.4748 28.0071H27.6151C26.5036 28.0071 25.4405 27.5527 24.6725 26.7494L22.32 24.3971C19.812 21.8892 16.4105 20.4803 12.8638 20.4803C11.765 20.4803 10.7128 20.0362 9.94643 19.2488L7.11689 16.3418Z" fill="url(#paint5_linear_1408_104393)"/>
<path fill-rule="evenodd" clip-rule="evenodd" d="M45.3128 25.6815C46.5253 25.6815 47.5082 24.6986 47.5082 23.4862C47.5082 22.2738 46.5253 21.2909 45.3128 21.2909C44.64 21.2909 44.0378 21.5936 43.6351 22.0702H43.4913C41.543 22.0702 39.6871 22.9008 38.389 24.3536L35.1279 28.0037H38.8435L40.4554 26.1996C41.2277 25.3351 42.332 24.8409 43.4913 24.8409H43.5852C43.9871 25.3527 44.6116 25.6815 45.3128 25.6815Z" fill="url(#paint6_linear_1408_104393)"/>
<path fill-rule="evenodd" clip-rule="evenodd" d="M36.4579 32.2325L35.2348 30.7783H31.6143L34.3373 34.0159C35.0489 34.8619 36.0979 35.3504 37.2035 35.3504H37.9982C38.3961 35.7518 38.9478 36.0004 39.5576 36.0004C40.7701 36.0004 41.753 35.0176 41.753 33.8052C41.753 32.5928 40.7701 31.6099 39.5576 31.6099C38.799 31.6099 38.1303 31.9946 37.7359 32.5797H37.2035C36.9159 32.5797 36.643 32.4526 36.4579 32.2325Z" fill="url(#paint7_linear_1408_104393)"/>
<defs>
<linearGradient id="paint0_linear_1408_104393" x1="31.5362" y1="20.8363" x2="18.351" y2="23.5334" gradientUnits="userSpaceOnUse">
<stop offset="0.530553" stop-color="#E3E5E8"/>
<stop offset="1" stop-color="#E3E5E8" stop-opacity="0.4"/>
</linearGradient>
<linearGradient id="paint1_linear_1408_104393" x1="48.6377" y1="16.9417" x2="1.27436" y2="16.991" gradientUnits="userSpaceOnUse">
<stop offset="0.69683" stop-color="#E3E5E8"/>
<stop offset="1" stop-color="#E3E5E8" stop-opacity="0"/>
</linearGradient>
<linearGradient id="paint2_linear_1408_104393" x1="30.0937" y1="2.14161" x2="7.97062" y2="6.74045" gradientUnits="userSpaceOnUse">
<stop offset="0.69683" stop-color="#E3E5E8"/>
<stop offset="1" stop-color="#E3E5E8" stop-opacity="0.4"/>
</linearGradient>
<linearGradient id="paint3_linear_1408_104393" x1="33.4408" y1="9.35498" x2="22.6218" y2="2.56588" gradientUnits="userSpaceOnUse">
<stop offset="0.624582" stop-color="#E3E5E8"/>
<stop offset="1" stop-color="#E3E5E8" stop-opacity="0.4"/>
</linearGradient>
<linearGradient id="paint4_linear_1408_104393" x1="42.6804" y1="8.67699" x2="29.8568" y2="11.2546" gradientUnits="userSpaceOnUse">
<stop offset="0.527344" stop-color="#E3E5E8"/>
<stop offset="1" stop-color="#E3E5E8" stop-opacity="0.4"/>
</linearGradient>
<linearGradient id="paint5_linear_1408_104393" x1="42.5315" y1="31.6112" x2="3.24047" y2="12.1879" gradientUnits="userSpaceOnUse">
<stop offset="0.69683" stop-color="#E3E5E8"/>
<stop offset="1" stop-color="#E3E5E8" stop-opacity="0"/>
</linearGradient>
<linearGradient id="paint6_linear_1408_104393" x1="46.4211" y1="21.7811" x2="34.7236" y2="24.8342" gradientUnits="userSpaceOnUse">
<stop offset="0.37659" stop-color="#E3E5E8"/>
<stop offset="1" stop-color="#E3E5E8" stop-opacity="0.4"/>
</linearGradient>
<linearGradient id="paint7_linear_1408_104393" x1="41.1775" y1="35.3397" x2="34.2536" y2="29.268" gradientUnits="userSpaceOnUse">
<stop offset="0.417312" stop-color="#E3E5E8"/>
<stop offset="1" stop-color="#E3E5E8" stop-opacity="0.4"/>
</linearGradient>
</defs>
</svg>
